<svg xmlns="http://www.w3.org/2000/svg" xmlns:xlink="http://www.w3.org/1999/xlink" width="1920" zoomAndPan="magnify" viewBox="0 0 1440 809.999993" height="1080" preserveAspectRatio="xMidYMid meet" version="1.0"><defs><g/><clipPath id="77ec82cf64"><rect x="0" width="1222" y="0" height="416"/></clipPath></defs><g transform="matrix(1, 0, 0, 1, 109, 197)"><g clip-path="url(#77ec82cf64)"><g fill="#c7ef4e" fill-opacity="1"><g transform="translate(1.408798, 333.159642)"><g><path d="M 103.625 -247.203125 C 124.84375 -247.203125 141.941406 -241.390625 154.921875 -229.765625 C 167.910156 -218.140625 175.644531 -201.941406 178.125 -181.171875 L 147.640625 -181.171875 C 146.285156 -193.359375 141.710938 -202.894531 133.921875 -209.78125 C 126.140625 -216.664062 116.039062 -220.109375 103.625 -220.109375 C 90.082031 -220.109375 79.359375 -216.046875 71.453125 -207.921875 C 63.546875 -199.796875 59.59375 -188.625 59.59375 -174.40625 L 59.59375 -69.421875 C 59.59375 -55.203125 63.488281 -44.023438 71.28125 -35.890625 C 79.070312 -27.765625 89.851562 -23.703125 103.625 -23.703125 C 116.039062 -23.703125 126.140625 -27.144531 133.921875 -34.03125 C 141.710938 -40.914062 146.285156 -50.457031 147.640625 -62.65625 L 178.125 -62.65625 C 175.644531 -41.882812 167.910156 -25.679688 154.921875 -14.046875 C 141.941406 -2.421875 124.84375 3.390625 103.625 3.390625 C 92.113281 3.390625 81.785156 1.695312 72.640625 -1.6875 C 63.492188 -5.070312 55.703125 -9.925781 49.265625 -16.25 C 42.835938 -22.570312 37.875 -30.25 34.375 -39.28125 C 30.875 -48.3125 29.125 -58.359375 29.125 -69.421875 L 29.125 -174.40625 C 29.125 -185.46875 30.875 -195.507812 34.375 -204.53125 C 37.875 -213.5625 42.835938 -221.238281 49.265625 -227.5625 C 55.703125 -233.882812 63.492188 -238.738281 72.640625 -242.125 C 81.785156 -245.507812 92.113281 -247.203125 103.625 -247.203125 Z M 103.625 -247.203125 "/></g></g></g><g fill="#c7ef4e" fill-opacity="1"><g transform="translate(204.588858, 333.159642)"><g><path d="M 15.234375 -243.828125 L 187.953125 -243.828125 L 187.953125 -217.0625 L 117.171875 -217.0625 L 117.171875 0 L 86.015625 0 L 86.015625 -217.0625 L 15.234375 -217.0625 Z M 15.234375 -243.828125 "/></g></g></g><g fill="#c7ef4e" fill-opacity="1"><g transform="translate(407.768918, 333.159642)"><g><path d="M 32.171875 -244.15625 L 177.78125 -244.15625 L 177.78125 -217.0625 L 61.96875 -217.0625 L 61.96875 -138.171875 L 168.984375 -138.171875 L 168.984375 -111.078125 L 62.65625 -111.078125 L 62.65625 0 L 32.171875 0 Z M 32.171875 -244.15625 "/></g></g></g><g fill="#c7ef4e" fill-opacity="1"><g transform="translate(610.948978, 333.159642)"><g><path d="M 66.03125 -243.828125 L 66.03125 -27.765625 L 181.171875 -27.765625 L 181.171875 0 L 35.5625 0 L 35.5625 -243.828125 Z M 66.03125 -243.828125 "/></g></g></g><g fill="#c7ef4e" fill-opacity="1"><g transform="translate(814.129038, 333.159642)"><g><path d="M 21.328125 -54.1875 C 21.328125 -62.988281 22.851562 -70.941406 25.90625 -78.046875 C 28.957031 -85.160156 33.359375 -91.203125 39.109375 -96.171875 C 44.867188 -101.140625 51.8125 -104.976562 59.9375 -107.6875 C 68.0625 -110.394531 77.207031 -111.75 87.375 -111.75 L 142.90625 -111.75 L 142.90625 -126.984375 C 142.90625 -138.503906 139.125 -147.476562 131.5625 -153.90625 C 124 -160.34375 113.109375 -163.5625 98.890625 -163.5625 C 88.503906 -163.5625 79.640625 -161.640625 72.296875 -157.796875 C 64.960938 -153.960938 60.050781 -148.660156 57.5625 -141.890625 L 27.09375 -141.890625 C 30.25 -156.566406 38.316406 -168.191406 51.296875 -176.765625 C 64.285156 -185.347656 80.375 -189.640625 99.5625 -189.640625 C 122.59375 -189.640625 140.65625 -184.273438 153.75 -173.546875 C 166.84375 -162.828125 173.390625 -147.875 173.390625 -128.6875 L 173.390625 0 L 145.609375 0 L 145.609375 -35.5625 L 142.90625 -35.5625 C 139.96875 -23.59375 133.082031 -14.109375 122.25 -7.109375 C 111.414062 -0.109375 98.207031 3.390625 82.625 3.390625 C 63.882812 3.390625 48.984375 -1.800781 37.921875 -12.1875 C 26.859375 -22.570312 21.328125 -36.570312 21.328125 -54.1875 Z M 89.40625 -21.671875 C 97.082031 -21.671875 104.191406 -22.6875 110.734375 -24.71875 C 117.285156 -26.75 122.929688 -29.625 127.671875 -33.34375 C 132.410156 -37.070312 136.132812 -41.421875 138.84375 -46.390625 C 141.550781 -51.359375 142.90625 -56.78125 142.90625 -62.65625 L 142.90625 -88.046875 L 88.046875 -88.046875 C 76.753906 -88.046875 67.890625 -85.109375 61.453125 -79.234375 C 55.023438 -73.367188 51.8125 -65.242188 51.8125 -54.859375 C 51.8125 -44.472656 55.082031 -36.34375 61.625 -30.46875 C 68.175781 -24.601562 77.4375 -21.671875 89.40625 -21.671875 Z M 89.40625 -21.671875 "/></g></g></g><g fill="#c7ef4e" fill-opacity="1"><g transform="translate(1017.309098, 333.159642)"><g><path d="M 29.796875 -247.203125 L 60.28125 -247.203125 L 60.28125 -189.640625 C 60.28125 -186.472656 60.222656 -182.800781 60.109375 -178.625 C 59.992188 -174.457031 59.820312 -170.566406 59.59375 -166.953125 C 59.144531 -162.660156 58.804688 -158.367188 58.578125 -154.078125 L 61.296875 -154.078125 C 64.234375 -165.367188 70.210938 -174.117188 79.234375 -180.328125 C 88.265625 -186.535156 99.664062 -189.640625 113.4375 -189.640625 C 122.925781 -189.640625 131.503906 -187.945312 139.171875 -184.5625 C 146.847656 -181.175781 153.394531 -176.378906 158.8125 -170.171875 C 164.238281 -163.960938 168.472656 -156.34375 171.515625 -147.3125 C 174.566406 -138.28125 176.09375 -128.117188 176.09375 -116.828125 L 176.09375 -69.421875 C 176.09375 -58.128906 174.566406 -47.96875 171.515625 -38.9375 C 168.472656 -29.90625 164.238281 -22.285156 158.8125 -16.078125 C 153.394531 -9.867188 146.847656 -5.070312 139.171875 -1.6875 C 131.503906 1.695312 122.925781 3.390625 113.4375 3.390625 C 99.664062 3.390625 88.265625 0.285156 79.234375 -5.921875 C 70.210938 -12.128906 64.234375 -20.878906 61.296875 -32.171875 L 58.578125 -32.171875 L 58.578125 0 L 29.796875 0 Z M 60.28125 -69.421875 C 60.28125 -55.203125 64.0625 -43.914062 71.625 -35.5625 C 79.1875 -27.207031 89.289062 -23.03125 101.9375 -23.03125 C 115.476562 -23.03125 126.140625 -27.207031 133.921875 -35.5625 C 141.710938 -43.914062 145.609375 -55.203125 145.609375 -69.421875 L 145.609375 -116.828125 C 145.609375 -131.503906 141.769531 -142.90625 134.09375 -151.03125 C 126.425781 -159.15625 115.707031 -163.21875 101.9375 -163.21875 C 89.289062 -163.21875 79.1875 -159.039062 71.625 -150.6875 C 64.0625 -142.34375 60.28125 -131.054688 60.28125 -116.828125 Z M 60.28125 -69.421875 "/></g></g></g></g></g></svg>